<?xml version="1.0" encoding="utf-8"?>
<!-- Generator: Adobe Illustrator 25.2.0, SVG Export Plug-In . SVG Version: 6.00 Build 0)  -->
<svg version="1.1" id="Layer_1" focusable="false" xmlns="http://www.w3.org/2000/svg" xmlns:xlink="http://www.w3.org/1999/xlink"
	 x="0px" y="0px" viewBox="0 0 448 410" style="enable-background:new 0 0 448 410;" xml:space="preserve">
<style type="text/css">
	.st0{fill:#0DB7B7;}
</style>
<path class="st0" d="M16,81h416c8.8,0,16-7.2,16-16V25c0-8.8-7.2-16-16-16H16C7.2,9,0,16.2,0,25v40C0,73.8,7.2,81,16,81z M16,241
	h416c8.8,0,16-7.2,16-16v-40c0-8.8-7.2-16-16-16H16c-8.8,0-16,7.2-16,16v40C0,233.8,7.2,241,16,241z M16,401h416c8.8,0,16-7.2,16-16
	v-40c0-8.8-7.2-16-16-16H16c-8.8,0-16,7.2-16,16v40C0,393.8,7.2,401,16,401z"/>
</svg>
