<?xml version="1.0" encoding="utf-8"?>
<!-- Generator: Adobe Illustrator 25.2.0, SVG Export Plug-In . SVG Version: 6.00 Build 0)  -->
<svg version="1.1" id="Layer_1" focusable="false" xmlns="http://www.w3.org/2000/svg" xmlns:xlink="http://www.w3.org/1999/xlink"
	 x="0px" y="0px" viewBox="0 0 480 512" style="enable-background:new 0 0 480 512;" xml:space="preserve">
<style type="text/css">
	.st0{fill:#0DB7B7;}
</style>
<path class="st0" d="M116.3,480H23.4V180.9h92.9V480z M69.8,140.1c-29.7,0-53.8-24.6-53.8-54.3C16,56.1,40.1,32,69.8,32
	c29.7,0,53.8,24.1,53.8,53.8C123.6,115.5,99.5,140.1,69.8,140.1z M463.9,480h-92.7V334.4c0-34.7-0.7-79.2-48.3-79.2
	c-48.3,0-55.7,37.7-55.7,76.7V480h-92.8V180.9h89.1v40.8h1.3c12.4-23.5,42.7-48.3,87.9-48.3c94,0,111.3,61.9,111.3,142.3V480H463.9z
	"/>
</svg>
