<?xml version="1.0" encoding="utf-8"?>
<!-- Generator: Adobe Illustrator 25.2.0, SVG Export Plug-In . SVG Version: 6.00 Build 0)  -->
<svg version="1.1" id="Layer_1" xmlns="http://www.w3.org/2000/svg" xmlns:xlink="http://www.w3.org/1999/xlink" x="0px" y="0px"
	 viewBox="0 0 534.8 65.1" style="enable-background:new 0 0 534.8 65.1;" xml:space="preserve">
<style type="text/css">
	.st0{fill:#FF3864;}
</style>
<g>
	<path d="M12.8,55.2C8.4,51,6.1,44.6,6.1,36.1c0-8.8,2.1-15.8,6.4-21c4.2-5.2,10.6-7.8,19-7.8c7.1,0,13.2,1.3,18.3,4v3.6
		c0,1.9-0.1,4-0.3,6.1c-0.2,2.2-0.5,3.9-0.8,5.1H38.1l-0.8-6.3c-1.9-0.5-4.2-0.7-7-0.7c-3.1,0-6.2,0.3-9.3,1c-1.4,4.7-2,9.9-2,15.5
		c0,5,1.1,8.6,3.2,10.9c2.2,2.3,5.8,3.4,10.9,3.4c3.1,0,5.9-0.4,8.3-1.1c2.4-0.7,4.7-1.7,6.8-3l4.9,9.9c-2.7,2-5.7,3.5-9,4.5
		c-3.3,1-7.3,1.5-11.9,1.5C23.7,61.7,17.3,59.5,12.8,55.2z"/>
	<path d="M61.3,58.6c-2-1.9-2.9-4.8-2.9-8.5c0-8.8,6.6-13.2,19.7-13.2c1.1,0,2.5,0.1,4.4,0.3v-3.7c0-1.5-0.3-2.5-1-2.9
		c-0.7-0.5-1.8-0.7-3.5-0.7c-1.5,0-2.9,0.1-4.1,0.3L73,34.2H62.5c-0.7-2.4-1.1-5-1.1-7.6v-2.1c2.5-1.4,5.2-2.4,7.9-3.1
		c2.7-0.7,6-1.1,9.7-1.1c5.2,0,9.2,1,12,3.1c2.8,2.1,4.2,5.2,4.2,9.3v28.1H84.5l-0.8-5.6h-0.7c-1.6,2.2-3.4,3.7-5.3,4.8
		c-2,1-4.4,1.5-7.4,1.5C66.2,61.5,63.2,60.5,61.3,58.6z M79.1,50.4c1.2-0.5,2.4-1.3,3.6-2.3v-3c-1.6-0.3-3.5-0.4-5.8-0.4
		c-1.8,0-3.4,0.2-5,0.6c-0.3,0.8-0.5,1.8-0.5,2.9c0,2,1.1,3,3.4,3C76.4,51.2,77.8,51,79.1,50.4z"/>
	<path d="M105.6,20.7h10.9l0.7,5.9h0.7c1.6-2.1,3.4-3.7,5.4-4.8c2-1.1,4.6-1.7,7.6-1.7c2.6,0,4.8,0.6,6.7,1.8
		c1.8,1.2,3.2,2.9,4.2,5.3h0.6c3.7-4.7,8.4-7.1,14.1-7.1c3.8,0,6.7,1,8.6,2.9c2,2,2.9,4.8,2.9,8.5v29.2h-12.6V32.6
		c-1.2-0.3-2.8-0.5-4.8-0.5c-2.9,0-5.5,0.7-7.7,2.2v26.5h-12.4V32.3c-1-0.4-2.3-0.6-4-0.6c-3.1,0-5.8,0.6-8.3,1.7v27.5h-12.6V20.7z"
		/>
	<path d="M178.4,3.8h12.7v11.4h-12.7V3.8z M178.5,20.7h12.6v40.1h-12.6V20.7z"/>
	<path d="M207.4,59.4c-1.7-1-3.1-2.1-4.2-3.3c-1.2-1.2-1.7-2.4-1.7-3.5V3.8H214v42c0,1.5,0.2,2.8,0.5,3.7h1.2l4.6-2.5l4,5.6
		c-1.3,2.1-3.2,4.1-5.6,5.9c-2.4,1.8-4.7,2.8-6.7,2.8C210.6,61,209.1,60.3,207.4,59.4z"/>
	<path d="M235.9,59.4c-1.7-1-3.1-2.1-4.2-3.3c-1.2-1.2-1.7-2.4-1.7-3.5V3.8h12.6v42c0,1.5,0.2,2.8,0.5,3.7h1.2l4.6-2.5l4,5.6
		c-1.3,2.1-3.2,4.1-5.6,5.9c-2.4,1.8-4.7,2.8-6.7,2.8C239.1,61,237.6,60.3,235.9,59.4z"/>
	<path d="M276.7,20.2c5.2,0,9.2,1,12,3.1c2.8,2.1,4.2,5.2,4.2,9.3v28.1h-10.7l-0.8-5.6h-0.7c-1.6,2.2-3.4,3.7-5.3,4.8
		c-2,1-4.4,1.5-7.4,1.5c-4.1,0-7.1-1-9.1-2.9c-2-1.9-2.9-4.8-2.9-8.5c0-8.8,6.6-13.2,19.7-13.2c1.1,0,2.5,0.1,4.4,0.3v-3.7
		c0-1.5-0.3-2.5-1-2.9c-0.7-0.5-1.8-0.7-3.5-0.7c-1.5,0-2.9,0.1-4.1,0.3l-0.8,4.1h-10.5c-0.7-2.4-1.1-5-1.1-7.6v-2.1
		c2.5-1.4,5.2-2.4,7.9-3.1C269.7,20.6,273,20.2,276.7,20.2 M276.7,50.4c1.2-0.5,2.4-1.3,3.6-2.3v-3c-1.6-0.3-3.5-0.4-5.8-0.4
		c-1.8,0-3.4,0.2-5,0.6c-0.3,0.8-0.5,1.8-0.5,2.9c0,2,1.1,3,3.4,3C274,51.2,275.5,51,276.7,50.4z"/>
	<path class="st0" d="M311.7,20h-16.8V8.1h46.4V20h-16.8v40.8h-12.7V20z"/>
	<path class="st0" d="M345.1,56.4c-3-3.5-4.5-8.4-4.5-14.8c0-4.2,0.9-7.9,2.6-11.2c1.7-3.3,4.2-5.9,7.5-7.7
		c3.3-1.9,7.1-2.8,11.6-2.8c12.6,0,18.9,6.7,18.9,20.2c0,6.5-1.8,11.7-5.4,15.6c-3.6,3.9-9,5.9-16.3,5.9
		C352.8,61.6,348.1,59.8,345.1,56.4z M367.2,50.1c1-2.4,1.4-5.6,1.4-9.4c0-3.7-0.6-6.3-1.7-7.8c-1.2-1.4-3.2-2.2-6.2-2.2
		c-2.2,0-4.2,0.3-6.3,0.8c-1,2.4-1.4,5.6-1.4,9.5c0,3.7,0.6,6.3,1.7,7.8c1.2,1.4,3.2,2.2,6.2,2.2C363.2,51,365.3,50.7,367.2,50.1z"
		/>
	<path class="st0" d="M392.6,31.4h-6.4l1.7-10.7h4.7v-5.9c0-2.2,0.9-4.1,2.7-6c1.8-1.8,4-3.4,6.5-4.5c2.5-0.5,5.4-0.8,8.7-0.8
		s6.3,0.6,9.2,1.9l-3.3,11c-1.8-0.7-3.7-1-5.7-1c-1.9,0-3.6,0.3-4.9,0.8c-0.4,1-0.6,2.4-0.6,4v0.6h9.9l-1.7,10.7h-8.2v29.4h-12.5
		V31.4z"/>
	<path class="st0" d="M421.9,58.6c-2-1.9-2.9-4.8-2.9-8.5c0-8.8,6.6-13.2,19.7-13.2c1.1,0,2.5,0.1,4.4,0.3v-3.7c0-1.5-0.3-2.5-1-2.9
		c-0.7-0.5-1.8-0.7-3.5-0.7c-1.5,0-2.9,0.1-4.1,0.3l-0.8,4.1h-10.5c-0.7-2.4-1.1-5-1.1-7.6v-2.1c2.5-1.4,5.2-2.4,7.9-3.1
		c2.7-0.7,6-1.1,9.7-1.1c5.2,0,9.2,1,12,3.1c2.8,2.1,4.2,5.2,4.2,9.3v28.1h-10.7l-0.8-5.6h-0.7c-1.6,2.2-3.4,3.7-5.3,4.8
		c-2,1-4.4,1.5-7.4,1.5C426.9,61.5,423.9,60.5,421.9,58.6z M439.7,50.4c1.2-0.5,2.4-1.3,3.6-2.3v-3c-1.6-0.3-3.5-0.4-5.8-0.4
		c-1.8,0-3.4,0.2-5,0.6c-0.3,0.8-0.5,1.8-0.5,2.9c0,2,1.1,3,3.4,3C437,51.2,438.5,51,439.7,50.4z"/>
	<path class="st0" d="M467.2,20.7h11.6l0.5,6.3h0.7c3.5-4.8,8-7.1,13.7-7.1c3.9,0,6.8,1,8.8,3.1c2,2,3,4.9,3,8.7v29.2h-12.5V32.5
		c-1.1-0.5-2.6-0.8-4.5-0.8c-3.7,0-6.7,0.9-8.8,2.7v26.3h-12.5V20.7z"/>
	<path class="st0" d="M515.9,3.8h12.7v11.4h-12.7V3.8z M516,20.7h12.6v40.1H516V20.7z"/>
</g>
</svg>
